<?xml version="1.0" encoding="utf-8"?>
<!-- Generator: Adobe Illustrator 17.1.0, SVG Export Plug-In . SVG Version: 6.00 Build 0)  -->
<!DOCTYPE svg PUBLIC "-//W3C//DTD SVG 1.1//EN" "http://www.w3.org/Graphics/SVG/1.1/DTD/svg11.dtd">
<svg version="1.1" id="Layer_1" xmlns="http://www.w3.org/2000/svg" xmlns:xlink="http://www.w3.org/1999/xlink" x="0px" y="0px"
	 viewBox="0 0 30 30" enable-background="new 0 0 30 30" xml:space="preserve">
<title>Asset 4</title>
<g id="Layer_2">
	<g id="Grids">
		<path fill="#C86886" d="M29.8,19.1l0.2-2.4c0-0.5-0.4-1-0.9-1c0,0,0-0.1,0-0.1v-1.3c0-0.3,0-0.6-0.3-0.6h-0.2l0,0
			c0.1-6.5-6-11.7-13.5-11.7S1.3,7.1,1.3,13.5l0,0H1.1c-0.2,0-0.3,0.3-0.3,0.6v1.3c0,0,0,0.1,0,0.1c-0.5,0.1-0.9,0.5-1,1L0,19
			l0.7,5.9l0.2,2.4c0,0.5,0.7,0.9,1.4,0.9h0.8c0.7,0,1.3-0.6,1.3-1.1h1.4c0.7,0,1.3-0.6,1.3-1.1l-0.8-8.8c0-0.6-0.7-0.8-1.4-0.8H3.5
			l0,0c-0.1-0.5-0.6-0.8-1.1-0.7c0-0.1,0-0.1,0-0.2v-1.3c-0.1-0.2-0.3-0.5-0.5-0.5l0,0c0.5-1.7,1.5-3.2,2.7-4.5
			c8.1-8.6,16.5-4.6,20.7,0c1.3,1.3,2.3,2.8,2.8,4.5l0,0c-0.2,0-0.4,0.2-0.4,0.5v1.3c0,0.1,0,0.1,0,0.2c-0.6-0.1-1.1,0.2-1.3,0.7
			h-1.4c-0.7,0-1.4,0.3-1.4,0.9L23,25.7c0,0.5,0.5,1,1.3,1.1h1.4c0,0.5,0.5,1,1.3,1.1h0.8c0.7,0,1.4-0.3,1.4-0.9l0.2-2.4L29.8,19.1z
			 M26.5,16.3L26.5,16.3z"/>
	</g>
</g>
</svg>
