<?xml version="1.0" encoding="UTF-8" standalone="no"?>
<svg
   xmlns:dc="http://purl.org/dc/elements/1.1/"
   xmlns:cc="http://creativecommons.org/ns#"
   xmlns:rdf="http://www.w3.org/1999/02/22-rdf-syntax-ns#"
   xmlns:svg="http://www.w3.org/2000/svg"
   xmlns="http://www.w3.org/2000/svg"
   id="svg12"
   version="1.1"
   viewBox="0 0 27.95 27.95">
  <metadata
     id="metadata16">
    <rdf:RDF>
      <cc:Work
         rdf:about="">
        <dc:format>image/svg+xml</dc:format>
        <dc:type
           rdf:resource="http://purl.org/dc/dcmitype/StillImage" />
      </cc:Work>
    </rdf:RDF>
  </metadata>
  <defs
     id="defs4">
    <style
       id="style2">.cls-1{fill:#b83b62;}</style>
  </defs>
  <title
     id="title6">Asset 1</title>
  <g
     data-name="Layer 2"
     id="Layer_2">
    <g
       data-name="Layer 1"
       id="Layer_1-2">
      <path
         id="path8"
         d="M14,0A14,14,0,1,0,28,14,14,14,0,0,0,14,0ZM11.54,22.52a4.1,4.1,0,0,1-.9-2.84v-.29A3.86,3.86,0,0,1,12,16.16a.78.78,0,0,1,.34-.12h0q-.82.46-.82,3.65a5.86,5.86,0,0,0,.63,2.73,1,1,0,0,0,1.72.07,2.33,2.33,0,0,0,.34-1.37,10.62,10.62,0,0,0-.81-3.84,35.26,35.26,0,0,1-1.82-6.21A14.53,14.53,0,0,1,11.44,9V8.81a8.2,8.2,0,0,1,.79-3.43,4.41,4.41,0,0,1,1-1.33l.1,0h.05q-.79.71-.79,2.9a25.81,25.81,0,0,0,1.76,8.26,17.26,17.26,0,0,1,.89,4.61v0a3.74,3.74,0,0,1-1.6,3.31,2.45,2.45,0,0,1-.59.21A2.57,2.57,0,0,1,11.54,22.52Zm4.39.92a4.19,4.19,0,0,1-2.05,1.45l-.42.08v-.05a4.06,4.06,0,0,0,1.61-1,5.33,5.33,0,0,0,1.13-3.66v-.08q0-2.72-1.91-8.72a18.14,18.14,0,0,1-1-4.58,8.7,8.7,0,0,1,.45-2.37,2.64,2.64,0,0,1,1.09-1.35A1.23,1.23,0,0,1,15.27,3V3a1.06,1.06,0,0,0-.55.45,2,2,0,0,0-.34,1.27,16.45,16.45,0,0,0,1.16,4.81,29.07,29.07,0,0,1,1.78,9.05A7.92,7.92,0,0,1,15.92,23.44Z"
         class="cls-1" />
    </g>
  </g>
</svg>
