<?xml version="1.0" encoding="utf-8"?>
<!-- Generator: Adobe Illustrator 17.1.0, SVG Export Plug-In . SVG Version: 6.00 Build 0)  -->
<!DOCTYPE svg PUBLIC "-//W3C//DTD SVG 1.1//EN" "http://www.w3.org/Graphics/SVG/1.1/DTD/svg11.dtd">
<svg version="1.1" id="Layer_1" xmlns="http://www.w3.org/2000/svg" xmlns:xlink="http://www.w3.org/1999/xlink" x="0px" y="0px"
	 viewBox="0 0 30 30" enable-background="new 0 0 30 30" xml:space="preserve">
<title>Asset 3</title>
<g id="Layer_2">
	<g id="Grids">
		<path fill="#C86886" d="M22.7,10.7h-1.8V12v-1.4V9h-4.8V7.5h4.7V6h-4.7V4.5h4.6c-0.5-2.7-3-4.6-5.8-4.5l0,0
			c-2.8-0.2-5.2,1.7-5.8,4.5h4.7V6H9.1v1.5h4.8V9H9.1v1.6l0,1.4v-1.3H7.3c-0.9,0-0.9,3.3,0,3.3c0,5.1,0.3,10.2,4.6,10.8
			c0.3,0.5,0.9,0.8,1.6,0.8h0.6v0.7H10c-1,0-1.9,0.8-1.9,1.9c0,1,0.8,1.9,1.9,1.9h10c1,0,1.9-0.8,1.9-1.9c0-1-0.8-1.9-1.9-1.9h-4.1
			v-0.7h0.6c0.6,0,1.2-0.3,1.6-0.8c4.3-0.5,4.6-5.7,4.6-10.8C23.6,14,23.6,10.7,22.7,10.7z M9.2,15c0.1,2,0.9,5.4,4.6,5.4h2.5
			c3.7,0,4.4-3.4,4.6-5.4v-1.4c0,0,0,0.5,0,0.4c0-0.1,0.2,0,0.2,0c0,1.6,0.3,7.8-2.8,9c-0.3-0.7-1-1.3-1.7-1.3h-3
			c-0.8,0-1.5,0.5-1.7,1.3c-3-1.2-2.7-7.5-2.8-9c0-0.2,0.2,0,0.2,0v-0.4"/>
	</g>
</g>
</svg>
