<?xml version="1.0" encoding="utf-8"?>
<!-- Generator: Adobe Illustrator 17.1.0, SVG Export Plug-In . SVG Version: 6.00 Build 0)  -->
<!DOCTYPE svg PUBLIC "-//W3C//DTD SVG 1.1//EN" "http://www.w3.org/Graphics/SVG/1.1/DTD/svg11.dtd">
<svg version="1.1" id="Layer_1" xmlns="http://www.w3.org/2000/svg" xmlns:xlink="http://www.w3.org/1999/xlink" x="0px" y="0px"
	 viewBox="0 0 30 30" enable-background="new 0 0 30 30" xml:space="preserve">
<title>Asset 5</title>
<g id="Layer_2">
	<g id="Grids">
		<path fill="#C86886" d="M26,1.8H4c-2.2,0-4,1.8-4,4v18.4c0,2.2,1.8,4,4,4c0,0,0,0,0,0H26c2.2,0,4-1.8,4-4V5.8
			C30,3.6,28.2,1.8,26,1.8z M29.3,24.2c0,1.8-1.5,3.3-3.3,3.3l0,0h-3.8v-9.8H21c0,3.3,0,6.5,0,9.8h-5.4v-9.8h-1.3c0,3.3,0,6.5,0,9.8
			H9c0-3.3,0-6.5,0-9.8H7.7c0,3.3,0,6.5,0,9.8H4c-1.8,0-3.3-1.5-3.3-3.3l0,0V5.8C0.7,4,2.2,2.5,4,2.5h2.1v13.9
			c0,0.7,0.6,1.3,1.3,1.3l0,0h2.1c0.7,0,1.3-0.6,1.3-1.3l0,0V2.5h2v13.9c0,0.7,0.6,1.3,1.3,1.3l0,0h2.1c0.7,0,1.3-0.6,1.3-1.3l0,0
			V2.5h1.9v13.9c0,0.7,0.6,1.3,1.3,1.3l0,0h2.1c0.7,0,1.3-0.6,1.3-1.3V2.5H26c1.8,0,3.3,1.5,3.3,3.3c0,0,0,0,0,0L29.3,24.2z"/>
	</g>
</g>
</svg>
